<?xml version="1.0" encoding="UTF-8" standalone="no"?>
<!-- Created with Inkscape (http://www.inkscape.org/) -->

<svg
   xmlns:dc="http://purl.org/dc/elements/1.1/"
   xmlns:cc="http://creativecommons.org/ns#"
   xmlns:rdf="http://www.w3.org/1999/02/22-rdf-syntax-ns#"
   xmlns:svg="http://www.w3.org/2000/svg"
   xmlns="http://www.w3.org/2000/svg"
   xmlns:xlink="http://www.w3.org/1999/xlink"
   xmlns:sodipodi="http://sodipodi.sourceforge.net/DTD/sodipodi-0.dtd"
   xmlns:inkscape="http://www.inkscape.org/namespaces/inkscape"
   width="64.000031"
   height="64.000031"
   viewBox="0 0 64.000031 64.000033"
   id="svg2"
   version="1.1"
   inkscape:version="0.91 r13725"
   sodipodi:docname="icon.svg"
   inkscape:export-filename="/home/tharbaum/tmp/private_stuff/txt/apps/user/iconedit/icon.png"
   inkscape:export-xdpi="90"
   inkscape:export-ydpi="90">
  <defs
     id="defs4">
    <linearGradient
       id="linearGradient4159-2"
       inkscape:collect="always">
      <stop
         style="stop-color:#ababff;stop-opacity:1"
         offset="0"
         id="stop4219" />
      <stop
         id="stop4189"
         offset="1"
         style="stop-color:#0000b0;stop-opacity:1" />
    </linearGradient>
    <radialGradient
       inkscape:collect="always"
       xlink:href="#linearGradient4159-2"
       id="radialGradient4165"
       cx="9"
       cy="1028.1622"
       fx="9"
       fy="1028.1622"
       r="13"
       gradientTransform="matrix(0.60007034,0,0,0.60390682,-0.07462021,404.55794)"
       gradientUnits="userSpaceOnUse"
       spreadMethod="pad" />
  </defs>
  <sodipodi:namedview
     id="base"
     pagecolor="#ffffff"
     bordercolor="#666666"
     borderopacity="1.0"
     inkscape:pageopacity="0.0"
     inkscape:pageshadow="2"
     inkscape:zoom="6.4392805"
     inkscape:cx="33.20563"
     inkscape:cy="34.66675"
     inkscape:document-units="px"
     inkscape:current-layer="layer1"
     showgrid="true"
     units="px"
     inkscape:window-width="1280"
     inkscape:window-height="959"
     inkscape:window-x="0"
     inkscape:window-y="0"
     inkscape:window-maximized="1"
     fit-margin-top="0"
     fit-margin-left="0"
     fit-margin-right="0"
     fit-margin-bottom="0">
    <inkscape:grid
       type="xygrid"
       id="grid3336"
       empspacing="5"
       visible="true"
       enabled="true"
       snapvisiblegridlinesonly="true"
       originx="1.6687263e-05px"
       originy="-0.0021095319px" />
  </sodipodi:namedview>
  <metadata
     id="metadata7">
    <rdf:RDF>
      <cc:Work
         rdf:about="">
        <dc:format>image/svg+xml</dc:format>
        <dc:type
           rdf:resource="http://purl.org/dc/dcmitype/StillImage" />
        <dc:title />
      </cc:Work>
    </rdf:RDF>
  </metadata>
  <g
     inkscape:label="Layer 1"
     inkscape:groupmode="layer"
     id="layer1"
     transform="translate(1.6687264e-5,-988.36006)">
    <ellipse
       style="fill:url(#radialGradient4165);fill-opacity:1;fill-rule:nonzero;stroke:#ffffff;stroke-width:0.61390716;stroke-miterlimit:4;stroke-opacity:1;stroke-dasharray:none"
       id="path3357"
       cx="15.899113"
       cy="1036.4242"
       rx="15.34031"
       ry="15.376954"
       sodipodi:cx="15.899113"
       sodipodi:cy="1036.4242"
       sodipodi:rx="15.34031"
       sodipodi:ry="15.376954"
       transform="matrix(2.045135,0,0,2.0402613,-0.51583089,-1094.2161)" />
    <g
       id="g4337"
       transform="matrix(0.11182256,0,0,0.11182256,10.127174,997.21751)"
       style="fill:#ffffff;fill-opacity:1">
      <g
         id="g4291"
         style="fill:#ffffff;fill-opacity:1">
        <path
           id="path4293"
           d="m 298.809,287.873 c -21.789,31.978 -47.21,63.656 -70.192,87.398 -8.04,8.306 -15.595,15.467 -22.582,21.418 68.588,-1.306 133.022,-38.713 97.567,-101.286 -1.582,-2.586 -3.182,-5.09 -4.793,-7.53 z"
           inkscape:connector-curvature="0"
           style="fill:#ffffff;fill-opacity:1" />
        <path
           id="path4295"
           d="m 145.994,320.097 c 0,-15.807 12.813,-28.629 28.627,-28.629 2.075,0 4.097,0.227 6.047,0.646 11.107,-20.724 23.954,-42.066 37.637,-62.407 10.651,-15.833 20.518,-29.121 29.712,-39.999 -1.568,-16.001 -0.427,-35.044 4.534,-58.906 C 277.598,10.335 72.483,-74.035 12.371,120.624 -24.844,240.855 23.82,331.027 132.598,382.553 c 3.719,1.727 7.566,3.29 11.516,4.693 1.009,-11.445 5.235,-26.422 12.644,-44.788 -6.56,-5.244 -10.764,-13.308 -10.764,-22.361 z M 48.927,180.699 c 0,-15.814 12.816,-28.631 28.628,-28.631 15.807,0 28.627,12.816 28.627,28.631 0,15.806 -12.82,28.628 -28.627,28.628 -15.811,0 -28.628,-12.823 -28.628,-28.628 z m 52.961,110.769 c -15.813,0 -28.629,-12.813 -28.629,-28.621 0,-15.815 12.815,-28.631 28.629,-28.631 15.808,0 28.629,12.816 28.629,28.631 0,15.809 -12.821,28.621 -28.629,28.621 z M 125.526,81.94 c 0,-20.144 16.335,-36.477 36.477,-36.477 20.142,0 36.47,16.333 36.47,36.477 0,20.142 -16.328,36.472 -36.47,36.472 -20.142,0 -36.477,-16.331 -36.477,-36.472 z"
           inkscape:connector-curvature="0"
           style="fill:#ffffff;fill-opacity:1" />
        <path
           id="path4297"
           d="m 302.786,188.889 c -0.002,-0.001 -0.004,-0.003 -0.01,-0.004 -7.165,-4.599 -13.028,-10.495 -17.39,-17.188 -14.295,9.836 -32.436,29.769 -56.31,65.258 -48.85,72.619 -84.946,155.684 -68.009,166.78 1.276,0.837 2.821,1.241 4.601,1.241 21.834,0 79.571,-60.683 124.735,-127.83 24.781,-36.836 36.322,-61.56 39.475,-78.436 -4.906,-0.693 -9.994,-1.996 -15.294,-3.951 -4.147,-1.534 -8.119,-3.508 -11.798,-5.87 z"
           inkscape:connector-curvature="0"
           style="fill:#ffffff;fill-opacity:1" />
        <path
           id="path4299"
           d="m 409.74,71.642 c -0.945,-4.321 -4.855,-7.356 -9.268,-7.18 -35.358,1.318 -63.614,8.195 -83.984,20.439 -23.171,13.928 -30.309,31.113 -32.218,43.076 -1.46,9.152 -0.262,18.284 3.097,26.596 5.57,13.788 17.089,25.318 32.309,30.936 7.983,2.947 15.178,4.38 21.995,4.38 0,0 0,0 0,0 1.034,0 2.062,-0.037 3.083,-0.105 7.742,-0.513 15.119,-2.963 21.971,-7.309 20.418,-12.952 18.702,-34.235 17.188,-53.012 -1.884,-23.374 -1.906,-38.169 20.402,-47.428 4.086,-1.695 6.37,-6.072 5.425,-10.393 z"
           inkscape:connector-curvature="0"
           style="fill:#ffffff;fill-opacity:1" />
      </g>
      <g
         id="g4301"
         style="fill:#ffffff;fill-opacity:1" />
      <g
         id="g4303"
         style="fill:#ffffff;fill-opacity:1" />
      <g
         id="g4305"
         style="fill:#ffffff;fill-opacity:1" />
      <g
         id="g4307"
         style="fill:#ffffff;fill-opacity:1" />
      <g
         id="g4309"
         style="fill:#ffffff;fill-opacity:1" />
      <g
         id="g4311"
         style="fill:#ffffff;fill-opacity:1" />
      <g
         id="g4313"
         style="fill:#ffffff;fill-opacity:1" />
      <g
         id="g4315"
         style="fill:#ffffff;fill-opacity:1" />
      <g
         id="g4317"
         style="fill:#ffffff;fill-opacity:1" />
      <g
         id="g4319"
         style="fill:#ffffff;fill-opacity:1" />
      <g
         id="g4321"
         style="fill:#ffffff;fill-opacity:1" />
      <g
         id="g4323"
         style="fill:#ffffff;fill-opacity:1" />
      <g
         id="g4325"
         style="fill:#ffffff;fill-opacity:1" />
      <g
         id="g4327"
         style="fill:#ffffff;fill-opacity:1" />
      <g
         id="g4329"
         style="fill:#ffffff;fill-opacity:1" />
    </g>
    <ellipse
       style="opacity:1;fill:#ff0000;fill-opacity:1;stroke:none;stroke-width:2;stroke-linecap:round;stroke-linejoin:round;stroke-miterlimit:4;stroke-dasharray:none;stroke-dashoffset:0;stroke-opacity:1"
       id="path4160"
       cx="28.241226"
       cy="1006.4113"
       rx="4.1863217"
       ry="4.1588688" />
    <ellipse
       style="opacity:1;fill:#00ff1e;fill-opacity:1;stroke:none;stroke-width:2;stroke-linecap:round;stroke-linejoin:round;stroke-miterlimit:4;stroke-dasharray:none;stroke-dashoffset:0;stroke-opacity:1"
       id="path4162"
       cx="18.835283"
       cy="1017.4719"
       rx="3.2196229"
       ry="3.2745287" />
    <ellipse
       style="opacity:1;fill:#ffd800;fill-opacity:1;stroke:none;stroke-width:2;stroke-linecap:round;stroke-linejoin:round;stroke-miterlimit:4;stroke-dasharray:none;stroke-dashoffset:0;stroke-opacity:1"
       id="path4164"
       cx="21.554907"
       cy="1026.719"
       rx="3.3352828"
       ry="3.4117928" />
  </g>
</svg>
